<mxfile host="app.diagrams.net" modified="2024-03-21T14:01:42.013Z" agent="Mozilla/5.0 (Windows NT 10.0; Win64; x64) AppleWebKit/537.36 (KHTML, like Gecko) Chrome/122.0.0.0 Safari/537.36 OPR/108.0.0.0" version="24.0.7" etag="LKYB8vkqv1P1_6rdNS6G" type="github">
  <diagram name="PÃ¡gina-1" id="SdU5Aa-HrzC9FdkwVD95">
    <mxGraphModel>
      <root>
        <mxCell id="0" />
        <mxCell id="1" parent="0" />
      </root>
    </mxGraphModel>
  </diagram>
</mxfile>
